HIERARCHY
ROOT Hips
{
	OFFSET 0.053599 88.859886 3.107447
	CHANNELS 6 Xposition Yposition Zposition Zrotation Yrotation Xrotation 
	JOINT Spine
	{
		OFFSET -0.000000 8.814246 -2.080107
		CHANNELS 3 Zrotation Yrotation Xrotation
		JOINT Spine1
		{
			OFFSET 0.000000 8.844141 0.000000
			CHANNELS 3 Zrotation Yrotation Xrotation
			JOINT Spine2
			{
				OFFSET -0.000000 11.682268 0.000000
				CHANNELS 3 Zrotation Yrotation Xrotation
				JOINT Spine3
				{
					OFFSET 0.000000 11.746700 0.000000
					CHANNELS 3 Zrotation Yrotation Xrotation
					JOINT Neck
					{
						OFFSET -0.000000 17.658264 -0.000000
						CHANNELS 3 Zrotation Yrotation Xrotation
						JOINT Neck1
						{
							OFFSET -0.000000 5.101515 -0.000000
							CHANNELS 3 Zrotation Yrotation Xrotation
							JOINT Head
							{
								OFFSET 0.000000 5.101515 0.000000
								CHANNELS 3 Zrotation Yrotation Xrotation
								JOINT HeadEnd
								{
									OFFSET 0.000000 11.655085 0.000000
									CHANNELS 3 Zrotation Yrotation Xrotation
									End Site
									{
										OFFSET 0.000000 0.000000 0.000000
									}
								}
							}
						}
					}
					JOINT RightShoulder
					{
						OFFSET -2.625389 11.175210 0.000000
						CHANNELS 3 Zrotation Yrotation Xrotation
						JOINT RightArm
						{
							OFFSET -0.000000 10.434715 -0.000000
							CHANNELS 3 Zrotation Yrotation Xrotation
							JOINT RightForeArm
							{
								OFFSET -0.000000 29.628420 0.000000
								CHANNELS 3 Zrotation Yrotation Xrotation
								JOINT RightHand
								{
									OFFSET -0.000000 22.857611 0.000000
									CHANNELS 3 Zrotation Yrotation Xrotation
									JOINT RightHandThumb1
									{
										OFFSET -2.867323 3.959563 2.944291
										CHANNELS 3 Zrotation Yrotation Xrotation
										JOINT RightHandThumb2
										{
											OFFSET 0.000000 3.350399 0.000000
											CHANNELS 3 Zrotation Yrotation Xrotation
											JOINT RightHandThumb3
											{
												OFFSET 0.000000 3.756509 -0.000000
												CHANNELS 3 Zrotation Yrotation Xrotation
												JOINT RightHandThumb4
												{
													OFFSET 0.000000 3.147345 0.000000
													CHANNELS 3 Zrotation Yrotation Xrotation
													End Site
													{
														OFFSET 0.000000 0.000000 0.000000
													}
												}
											}
										}
									}
									JOINT RightHandIndex1
									{
										OFFSET -0.086752 10.030893 2.345280
										CHANNELS 3 Zrotation Yrotation Xrotation
										JOINT RightHandIndex2
										{
											OFFSET -0.000000 4.061090 0.000000
											CHANNELS 3 Zrotation Yrotation Xrotation
											JOINT RightHandIndex3
											{
												OFFSET -0.000000 3.248873 0.000000
												CHANNELS 3 Zrotation Yrotation Xrotation
												JOINT RightHandIndex4
												{
													OFFSET 0.000000 2.639709 -0.000000
													CHANNELS 3 Zrotation Yrotation Xrotation
													End Site
													{
														OFFSET 0.000000 0.000000 0.000000
													}
												}
											}
										}
									}
									JOINT RightHandMiddle1
									{
										OFFSET 0.104102 9.502952 0.006768
										CHANNELS 3 Zrotation Yrotation Xrotation
										JOINT RightHandMiddle2
										{
											OFFSET 0.000000 4.568727 0.000000
											CHANNELS 3 Zrotation Yrotation Xrotation
											JOINT RightHandMiddle3
											{
												OFFSET 0.000000 3.654981 -0.000000
												CHANNELS 3 Zrotation Yrotation Xrotation
												JOINT RightHandMiddle4
												{
													OFFSET -0.000000 2.741236 -0.000000
													CHANNELS 3 Zrotation Yrotation Xrotation
													End Site
													{
														OFFSET 0.000000 0.000000 0.000000
													}
												}
											}
										}
									}
									JOINT RightHandRing1
									{
										OFFSET 0.086752 8.921708 -2.267442
										CHANNELS 3 Zrotation Yrotation Xrotation
										JOINT RightHandRing2
										{
											OFFSET -0.000000 4.061090 0.000000
											CHANNELS 3 Zrotation Yrotation Xrotation
											JOINT RightHandRing3
											{
												OFFSET 0.000000 3.654981 -0.000000
												CHANNELS 3 Zrotation Yrotation Xrotation
												JOINT RightHandRing4
												{
													OFFSET 0.000000 2.741236 -0.000000
													CHANNELS 3 Zrotation Yrotation Xrotation
													End Site
													{
														OFFSET 0.000000 0.000000 0.000000
													}
												}
											}
										}
									}
									JOINT RightHandPinky1
									{
										OFFSET -0.173504 7.976997 -4.467199
										CHANNELS 3 Zrotation Yrotation Xrotation
										JOINT RightHandPinky2
										{
											OFFSET 0.000000 3.350399 -0.000000
											CHANNELS 3 Zrotation Yrotation Xrotation
											JOINT RightHandPinky3
											{
												OFFSET -0.000000 2.842763 0.000000
												CHANNELS 3 Zrotation Yrotation Xrotation
												JOINT RightHandPinky4
												{
													OFFSET -0.000000 2.639709 0.000000
													CHANNELS 3 Zrotation Yrotation Xrotation
													End Site
													{
														OFFSET 0.000000 0.000000 0.000000
													}
												}
											}
										}
									}
									JOINT RightForeArmEnd
									{
										OFFSET 0.000000 0.000000 0.000000
										CHANNELS 3 Zrotation Yrotation Xrotation
										End Site
										{
											OFFSET 0.000000 0.000000 0.000000
										}
									}
								}
								JOINT RightArmEnd
								{
									OFFSET 0.000000 0.000000 0.000000
									CHANNELS 3 Zrotation Yrotation Xrotation
									End Site
									{
										OFFSET 0.000000 0.000000 0.000000
									}
								}
							}
						}
					}
					JOINT LeftShoulder
					{
						OFFSET 2.625389 11.175210 0.000000
						CHANNELS 3 Zrotation Yrotation Xrotation
						JOINT LeftArm
						{
							OFFSET 0.000000 10.813635 -0.000000
							CHANNELS 3 Zrotation Yrotation Xrotation
							JOINT LeftForeArm
							{
								OFFSET 0.000000 28.724781 0.000000
								CHANNELS 3 Zrotation Yrotation Xrotation
								JOINT LeftHand
								{
									OFFSET 0.644384 25.716167 -0.328871
									CHANNELS 3 Zrotation Yrotation Xrotation
									JOINT LeftHandThumb1
									{
										OFFSET 2.867323 3.959563 2.944291
										CHANNELS 3 Zrotation Yrotation Xrotation
										JOINT LeftHandThumb2
										{
											OFFSET 0.000000 3.350399 0.000000
											CHANNELS 3 Zrotation Yrotation Xrotation
											JOINT LeftHandThumb3
											{
												OFFSET -0.000000 3.756509 0.000000
												CHANNELS 3 Zrotation Yrotation Xrotation
												JOINT LeftHandThumb4
												{
													OFFSET -0.000000 3.100000 0.000000
													CHANNELS 3 Zrotation Yrotation Xrotation
													End Site
													{
														OFFSET 0.000000 0.000000 0.000000
													}
												}
											}
										}
									}
									JOINT LeftHandIndex1
									{
										OFFSET 0.086752 10.030893 2.345280
										CHANNELS 3 Zrotation Yrotation Xrotation
										JOINT LeftHandIndex2
										{
											OFFSET -0.000000 4.061090 -0.000000
											CHANNELS 3 Zrotation Yrotation Xrotation
											JOINT LeftHandIndex3
											{
												OFFSET 0.000000 3.248873 -0.000000
												CHANNELS 3 Zrotation Yrotation Xrotation
												JOINT LeftHandIndex4
												{
													OFFSET 0.000000 2.639709 -0.000000
													CHANNELS 3 Zrotation Yrotation Xrotation
													End Site
													{
														OFFSET 0.000000 0.000000 0.000000
													}
												}
											}
										}
									}
									JOINT LeftHandMiddle1
									{
										OFFSET -0.104102 9.502952 0.006768
										CHANNELS 3 Zrotation Yrotation Xrotation
										JOINT LeftHandMiddle2
										{
											OFFSET -0.000000 4.568727 -0.000000
											CHANNELS 3 Zrotation Yrotation Xrotation
											JOINT LeftHandMiddle3
											{
												OFFSET 0.000000 3.654981 0.000000
												CHANNELS 3 Zrotation Yrotation Xrotation
												JOINT LeftHandMiddle4
												{
													OFFSET 0.000000 2.741236 -0.000000
													CHANNELS 3 Zrotation Yrotation Xrotation
													End Site
													{
														OFFSET 0.000000 0.000000 0.000000
													}
												}
											}
										}
									}
									JOINT LeftHandRing1
									{
										OFFSET -0.086752 8.921708 -2.267442
										CHANNELS 3 Zrotation Yrotation Xrotation
										JOINT LeftHandRing2
										{
											OFFSET 0.000000 4.061090 0.000000
											CHANNELS 3 Zrotation Yrotation Xrotation
											JOINT LeftHandRing3
											{
												OFFSET 0.000000 3.654981 0.000000
												CHANNELS 3 Zrotation Yrotation Xrotation
												JOINT LeftHandRing4
												{
													OFFSET 0.000000 2.741236 0.000000
													CHANNELS 3 Zrotation Yrotation Xrotation
													End Site
													{
														OFFSET 0.000000 0.000000 0.000000
													}
												}
											}
										}
									}
									JOINT LeftHandPinky1
									{
										OFFSET 0.173504 7.976997 -4.467199
										CHANNELS 3 Zrotation Yrotation Xrotation
										JOINT LeftHandPinky2
										{
											OFFSET -0.000000 3.350399 -0.000000
											CHANNELS 3 Zrotation Yrotation Xrotation
											JOINT LeftHandPinky3
											{
												OFFSET 0.000000 2.842763 0.000000
												CHANNELS 3 Zrotation Yrotation Xrotation
												JOINT LeftHandPinky4
												{
													OFFSET -0.000000 2.639709 -0.000000
													CHANNELS 3 Zrotation Yrotation Xrotation
													End Site
													{
														OFFSET 0.000000 0.000000 0.000000
													}
												}
											}
										}
									}
									JOINT LeftForeArmEnd
									{
										OFFSET 0.000000 0.000000 0.000000
										CHANNELS 3 Zrotation Yrotation Xrotation
										End Site
										{
											OFFSET 0.000000 0.000000 0.000000
										}
									}
								}
								JOINT LeftArmEnd
								{
									OFFSET 0.000000 0.000000 0.000000
									CHANNELS 3 Zrotation Yrotation Xrotation
									End Site
									{
										OFFSET 0.000000 0.000000 0.000000
									}
								}
							}
						}
					}
				}
			}
		}
	}
	JOINT RightUpLeg
	{
		OFFSET -11.289943 0.000000 0.000000
		CHANNELS 3 Zrotation Yrotation Xrotation
		JOINT RightLeg
		{
			OFFSET 0.000000 -38.200325 0.000000
			CHANNELS 3 Zrotation Yrotation Xrotation
			JOINT RightFoot
			{
				OFFSET -0.000000 -39.900856 -0.000000
				CHANNELS 3 Zrotation Yrotation Xrotation
				JOINT RightToeBase
				{
					OFFSET 0.000000 0.000000 15.261641
					CHANNELS 3 Zrotation Yrotation Xrotation
					JOINT RightToeBaseEnd
					{
						OFFSET 0.000000 0.000000 7.370709
						CHANNELS 3 Zrotation Yrotation Xrotation
						End Site
						{
							OFFSET 0.000000 0.000000 0.000000
						}
					}
				}
				JOINT RightLegEnd
				{
					OFFSET 0.000000 0.000000 0.000000
					CHANNELS 3 Zrotation Yrotation Xrotation
					End Site
					{
						OFFSET 0.000000 0.000000 0.000000
					}
				}
			}
			JOINT RightUpLegEnd
			{
				OFFSET 0.000000 0.000000 0.000000
				CHANNELS 3 Zrotation Yrotation Xrotation
				End Site
				{
					OFFSET 0.000000 0.000000 0.000000
				}
			}
		}
	}
	JOINT LeftUpLeg
	{
		OFFSET 11.315661 -0.000000 0.000000
		CHANNELS 3 Zrotation Yrotation Xrotation
		JOINT LeftLeg
		{
			OFFSET -0.000000 -38.200325 -0.000000
			CHANNELS 3 Zrotation Yrotation Xrotation
			JOINT LeftFoot
			{
				OFFSET 0.000000 -39.900856 -0.000000
				CHANNELS 3 Zrotation Yrotation Xrotation
				JOINT LeftToeBase
				{
					OFFSET -0.000000 -0.000000 15.261641
					CHANNELS 3 Zrotation Yrotation Xrotation
					JOINT LeftToeBaseEnd
					{
						OFFSET 0.000000 -0.000000 7.539996
						CHANNELS 3 Zrotation Yrotation Xrotation
						End Site
						{
							OFFSET 0.000000 0.000000 0.000000
						}
					}
				}
				JOINT LeftLegEnd
				{
					OFFSET 0.000000 0.000000 0.000000
					CHANNELS 3 Zrotation Yrotation Xrotation
					End Site
					{
						OFFSET 0.000000 0.000000 0.000000
					}
				}
			}
			JOINT LeftUpLegEnd
			{
				OFFSET 0.000000 0.000000 0.000000
				CHANNELS 3 Zrotation Yrotation Xrotation
				End Site
				{
					OFFSET 0.000000 0.000000 0.000000
				}
			}
		}
	}
}
MOTION
Frames: 5
Frame Time: 0.016667
0.053599 88.859886 3.107447 0.490481 0.055862 -6.497332 0.023754 -0.000539 5.886370 -1.012250 0.067046 0.861970 0.478071 -2.416792 3.829567 0.155030 -0.780500 1.929224 2.330515 0.848112 5.016849 0.371683 2.117863 -3.221864 -0.714533 -0.852149 -18.222401 0.000000 0.000000 0.000000 92.418694 -0.394880 9.707912 65.456573 -33.431271 5.091406 -0.130291 12.440493 22.353239 6.882370 13.743960 -6.458578 19.861429 30.097643 62.040974 -8.462701 -12.164348 -20.450144 -6.325801 -8.139122 -14.332924 0.000000 0.000000 0.000000 12.621688 -10.712396 0.231899 8.905269 0.376633 1.323778 8.902945 -0.111869 1.243825 0.000000 0.000000 0.000000 11.194713 -5.446730 -1.239449 7.889823 0.455857 0.481039 7.889222 -0.037052 0.412494 0.000000 0.000000 0.000000 10.912717 2.564455 -1.535874 7.825817 -0.947299 -0.611652 7.824722 0.070320 -0.477096 0.000000 0.000000 0.000000 9.631022 11.185607 -2.805182 7.161172 -1.900893 -1.652070 7.157181 0.085565 -1.400512 0.000000 0.000000 0.000000 0.000000 0.000000 0.000000 0.000000 0.000000 0.000000 -90.370071 0.051974 5.208683 -71.842018 19.306828 -7.574249 -0.664994 -8.642401 40.885647 -0.139946 -25.486511 -15.477552 -20.250540 -29.996990 61.691063 8.807010 12.918287 -21.553112 6.618044 8.635277 -15.110494 0.000000 0.000000 0.000000 -16.168392 -5.636370 -1.918335 -11.569428 0.324957 -1.715407 -11.569072 -0.164917 -1.615128 0.000000 0.000000 0.000000 -15.643335 -0.758781 -1.694552 -11.169063 0.440303 -0.678956 -11.168735 -0.058746 -0.582722 0.000000 0.000000 0.000000 -18.003109 7.607869 -1.025503 -12.703986 -0.874371 0.992852 -12.702737 0.099213 0.772902 0.000000 0.000000 0.000000 -18.852142 16.262062 -0.245862 -13.102126 -1.657223 2.980032 -13.096694 0.281077 2.526406 0.000000 0.000000 0.000000 0.000000 0.000000 0.000000 0.000000 0.000000 0.000000 -1.045058 -10.518975 11.869204 -0.078405 -0.635030 3.758801 -2.197730 -7.901679 18.681496 -0.890004 0.828132 -18.870453 0.000000 0.000000 0.000000 0.000000 0.000000 0.000000 0.000000 0.000000 0.000000 -1.784023 -6.543907 7.474547 0.053202 0.398207 7.545935 3.843466 -1.785134 17.966772 0.194973 -0.390531 -20.817129 0.000000 0.000000 0.000000 0.000000 0.000000 0.000000 0.000000 0.000000 0.000000 
0.110936 88.910110 2.908326 -0.290115 -0.303932 -7.315467 1.309609 -0.188931 6.646143 -0.968579 0.120564 2.662379 0.756968 -1.613319 1.573429 -0.885545 -0.166419 3.091703 1.353002 2.293338 3.083428 0.343368 2.976638 -3.829870 -1.052062 -0.573521 -18.461143 0.000000 0.000000 0.000000 92.978256 -0.439474 9.598375 64.996597 -32.145344 3.978672 -0.110805 13.121194 23.248533 6.835808 13.125119 -6.863232 19.891441 30.086033 62.056698 -8.457092 -12.112008 -20.487352 -6.311036 -8.117581 -14.316337 0.000000 0.000000 0.000000 12.010181 -10.745891 -0.268240 8.943579 0.333393 1.326557 8.734434 -0.107689 1.261657 0.000000 0.000000 0.000000 10.850045 -5.351508 -1.066774 7.609169 0.422633 0.516820 7.977728 -0.052889 0.442355 0.000000 0.000000 0.000000 10.311531 2.575990 -0.816525 7.421502 -0.889626 -0.850143 7.463885 0.067115 -0.624645 0.000000 0.000000 0.000000 9.605532 11.047611 -1.774700 7.127040 -1.650667 -2.419003 6.713991 0.277546 -2.044938 0.000000 0.000000 0.000000 0.000000 0.000000 0.000000 0.000000 0.000000 0.000000 -89.914215 0.121592 6.029806 -71.662338 19.595053 -6.542908 -1.217526 -9.100229 40.381279 1.822705 -23.275738 -16.068769 -20.263140 -29.959660 61.590714 8.910255 12.978571 -21.733398 6.669446 8.686119 -15.193297 0.000000 0.000000 0.000000 -17.246668 -5.489676 -0.137369 -11.004189 0.295341 -1.384648 -11.126019 -0.168306 -1.278165 0.000000 0.000000 0.000000 -16.581863 -0.502980 -0.921955 -10.893857 0.409303 -0.586234 -10.811682 -0.066300 -0.470360 0.000000 0.000000 0.000000 -18.738586 7.540541 -0.744021 -12.401776 -0.869515 0.844494 -12.379068 0.083736 0.655641 0.000000 0.000000 0.000000 -20.006008 15.948100 -1.143184 -12.965316 -1.550513 2.634676 -12.821313 0.343168 2.242587 0.000000 0.000000 0.000000 0.000000 0.000000 0.000000 0.000000 0.000000 0.000000 0.164909 -9.175869 11.032779 -0.048303 -0.640331 6.169501 -2.897641 -9.081832 17.704296 -0.791615 0.755444 -19.042038 0.000000 0.000000 0.000000 0.000000 0.000000 0.000000 0.000000 0.000000 0.000000 -1.529613 -6.386703 7.165869 0.057733 0.362631 8.522653 3.737395 -0.613474 16.989815 0.386756 -0.471489 -20.518808 0.000000 0.000000 0.000000 0.000000 0.000000 0.000000 0.000000 0.000000 0.000000 
0.112324 88.893112 2.895854 -0.317393 -0.368940 -7.388791 1.309148 -0.178848 6.687419 -0.908725 0.107748 2.628534 0.750760 -1.574780 1.684794 -0.858658 -0.135865 3.134399 1.302285 2.217793 3.012628 0.333201 2.906500 -3.834547 -1.066066 -0.605938 -18.430140 0.000000 0.000000 0.000000 92.883286 -0.438971 9.534434 64.992714 -32.323406 4.019252 -0.068627 13.203527 23.328287 6.653713 12.777847 -6.833127 19.879009 30.087078 62.057854 -8.458255 -12.101002 -20.473013 -6.311884 -8.107428 -14.307459 0.000000 0.000000 0.000000 11.999220 -10.744199 -0.282924 8.970549 0.337645 1.309064 8.773577 -0.101854 1.243376 0.000000 0.000000 0.000000 10.874353 -5.345382 -1.045432 7.649609 0.423118 0.509597 8.018766 -0.051445 0.436770 0.000000 0.000000 0.000000 10.357877 2.562015 -0.764711 7.495381 -0.890661 -0.840972 7.542121 0.064021 -0.615196 0.000000 0.000000 0.000000 9.605556 11.028860 -1.660237 7.141464 -1.656191 -2.403352 6.749126 0.270794 -2.023887 0.000000 0.000000 0.000000 0.000000 0.000000 0.000000 0.000000 0.000000 0.000000 -89.873230 0.123571 6.066498 -71.810081 19.724680 -6.518018 -1.209103 -9.152086 40.422031 1.930679 -23.010437 -16.033194 -20.252266 -29.966450 61.605572 8.888588 12.950832 -21.693829 6.654192 8.665157 -15.161313 0.000000 0.000000 0.000000 -17.146914 -5.535373 -0.211455 -11.070907 0.297187 -1.367852 -11.176103 -0.164356 -1.266289 0.000000 0.000000 0.000000 -16.470205 -0.532602 -0.974985 -10.968982 0.409788 -0.583206 -10.883052 -0.066251 -0.468304 0.000000 0.000000 0.000000 -18.692158 7.532501 -0.805119 -12.486559 -0.870128 0.843788 -12.449572 0.083114 0.653851 0.000000 0.000000 0.000000 -20.002369 15.946587 -1.211777 -13.006656 -1.554820 2.612550 -12.841920 0.339455 2.237471 0.000000 0.000000 0.000000 0.000000 0.000000 0.000000 0.000000 0.000000 0.000000 0.174814 -9.120865 11.135362 -0.048570 -0.642805 6.104038 -2.853058 -9.105100 17.736546 -0.793079 0.754793 -19.044710 0.000000 0.000000 0.000000 0.000000 0.000000 0.000000 0.000000 0.000000 0.000000 -1.503105 -6.339908 7.146682 0.056570 0.352785 8.620180 3.743249 -0.601238 16.990503 0.370437 -0.476238 -20.548740 0.000000 0.000000 0.000000 0.000000 0.000000 0.000000 0.000000 0.000000 0.000000 
0.116073 88.880722 2.899136 -0.335347 -0.427123 -7.478191 1.315890 -0.171164 6.688813 -0.895074 0.108128 2.611561 0.761908 -1.553360 1.769323 -0.843696 -0.104407 3.195701 1.255810 2.183573 2.977895 0.345813 2.876072 -3.823364 -1.066082 -0.620308 -18.422215 0.000000 0.000000 0.000000 92.796715 -0.444943 9.489416 65.104218 -32.179539 3.892618 -0.063117 13.286405 23.537424 6.657617 12.483479 -6.758808 19.890999 30.085087 62.041809 -8.471085 -12.137135 -20.521858 -6.322650 -8.125786 -14.341331 0.000000 0.000000 0.000000 12.097861 -10.773743 -0.276551 9.085119 0.342326 1.289298 8.894790 -0.096939 1.223628 0.000000 0.000000 0.000000 10.979325 -5.360840 -1.015118 7.759825 0.424923 0.501628 8.129752 -0.049409 0.429643 0.000000 0.000000 0.000000 10.445083 2.554258 -0.690418 7.602751 -0.892818 -0.833533 7.651680 0.061825 -0.607513 0.000000 0.000000 0.000000 9.624876 11.036739 -1.517006 7.189012 -1.660378 -2.397499 6.812323 0.268159 -2.018328 0.000000 0.000000 0.000000 0.000000 0.000000 0.000000 0.000000 0.000000 0.000000 -89.842201 0.128322 6.081285 -71.953255 19.729130 -6.515870 -1.173869 -9.210951 40.454052 1.905139 -22.796310 -15.832932 -20.259335 -29.968000 61.603680 8.884786 12.946938 -21.707373 6.652596 8.668275 -15.163786 0.000000 0.000000 0.000000 -17.149920 -5.562821 -0.177814 -11.113893 0.299705 -1.351608 -11.201338 -0.161008 -1.253956 0.000000 0.000000 0.000000 -16.451792 -0.545433 -0.941113 -11.019467 0.410514 -0.577741 -10.938686 -0.065834 -0.463627 0.000000 0.000000 0.000000 -18.736074 7.534619 -0.750507 -12.545296 -0.871555 0.843823 -12.510605 0.082161 0.651917 0.000000 0.000000 0.000000 -20.092291 15.948265 -1.177634 -13.056958 -1.556744 2.610304 -12.868561 0.341351 2.243834 0.000000 0.000000 0.000000 0.000000 0.000000 0.000000 0.000000 0.000000 0.000000 0.167613 -9.073343 11.242218 -0.048633 -0.641128 6.097361 -2.813679 -9.109932 17.752640 -0.794286 0.753733 -19.045437 0.000000 0.000000 0.000000 0.000000 0.000000 0.000000 0.000000 0.000000 0.000000 -1.490912 -6.300259 7.139728 0.056112 0.349830 8.739474 3.758807 -0.579744 16.972864 0.362485 -0.479668 -20.557816 0.000000 0.000000 0.000000 0.000000 0.000000 0.000000 0.000000 0.000000 0.000000 
0.122160 88.871346 2.906375 -0.353382 -0.474335 -7.567053 1.329777 -0.163573 6.678078 -0.890874 0.111303 2.599158 0.766742 -1.519025 1.841709 -0.837932 -0.076346 3.251319 1.182153 2.185896 3.016010 0.366187 2.862335 -3.784728 -1.054830 -0.630617 -18.450903 0.000000 0.000000 0.000000 92.742310 -0.444992 9.482158 65.298225 -31.963850 3.690678 -0.066769 13.424262 23.742891 6.644244 12.264298 -6.635199 19.911524 30.079817 62.015991 -8.492459 -12.190962 -20.594620 -6.340907 -8.156882 -14.389089 0.000000 0.000000 0.000000 12.278440 -10.814374 -0.236781 9.216472 0.351904 1.258295 9.031116 -0.086961 1.195917 0.000000 0.000000 0.000000 11.165115 -5.392659 -0.955078 7.886858 0.429589 0.488684 8.258389 -0.045231 0.418554 0.000000 0.000000 0.000000 10.615696 2.528612 -0.588056 7.725591 -0.899378 -0.816400 7.772809 0.056525 -0.592814 0.000000 0.000000 0.000000 9.712133 11.029628 -1.357584 7.261831 -1.677654 -2.357610 6.896107 0.254509 -1.985321 0.000000 0.000000 0.000000 0.000000 0.000000 0.000000 0.000000 0.000000 0.000000 -89.819252 0.124548 6.091912 -72.016693 19.752123 -6.477757 -1.144764 -9.262486 40.540550 1.797478 -22.629585 -15.660934 -20.255768 -29.968143 61.603561 8.888022 12.927680 -21.705416 6.650350 8.659046 -15.156593 0.000000 0.000000 0.000000 -17.170977 -5.571307 -0.066462 -11.112823 0.310818 -1.312195 -11.186109 -0.148964 -1.220276 0.000000 0.000000 0.000000 -16.455032 -0.548673 -0.836356 -11.019426 0.414988 -0.561641 -10.948070 -0.062025 -0.450425 0.000000 0.000000 0.000000 -18.772953 7.528438 -0.625481 -12.558065 -0.878783 0.828021 -12.520638 0.076625 0.638914 0.000000 0.000000 0.000000 -20.163263 15.933068 -1.085961 -13.066298 -1.576028 2.561091 -12.855258 0.327113 2.210015 0.000000 0.000000 0.000000 0.000000 0.000000 0.000000 0.000000 0.000000 0.000000 0.159166 -9.027753 11.342750 -0.048650 -0.638561 6.105632 -2.787734 -9.076349 17.758986 -0.792962 0.750218 -19.042053 0.000000 0.000000 0.000000 0.000000 0.000000 0.000000 0.000000 0.000000 0.000000 -1.485676 -6.283062 7.150529 0.055954 0.346923 8.840345 3.766871 -0.536159 16.960772 0.360401 -0.480161 -20.562483 0.000000 0.000000 0.000000 0.000000 0.000000 0.000000 0.000000 0.000000 0.000000 
